HIERARCHY
ROOT Hips
{
	OFFSET 0.00000 0.00000 0.00000
	CHANNELS 6 Xposition Yposition Zposition Zrotation Yrotation Xrotation 
	JOINT LHipJoint
	{
		OFFSET 0 0 0
		CHANNELS 3 Zrotation Yrotation Xrotation
		JOINT LeftHip
		{
			OFFSET 1.36337 -1.57426 1.11036
			CHANNELS 3 Zrotation Yrotation Xrotation
			JOINT LeftKnee
			{
				OFFSET 2.38468 -6.55187 0.00000
				CHANNELS 3 Zrotation Yrotation Xrotation
				JOINT LeftAnkle
				{
					OFFSET 2.37166 -6.51609 0.00000
					CHANNELS 3 Zrotation Yrotation Xrotation
					JOINT LeftToe
					{
						OFFSET 0.29078 -0.79891 2.01393
						CHANNELS 3 Zrotation Yrotation Xrotation
						End Site
						{
							OFFSET 0.00000 -0.00000 1.07924
						}
					}
				}
			}
		}
	}
	JOINT RHipJoint
	{
		OFFSET 0 0 0
		CHANNELS 3 Zrotation Yrotation Xrotation
		JOINT RightHip
		{
			OFFSET -1.36349 -1.57426 1.11036
			CHANNELS 3 Zrotation Yrotation Xrotation
			JOINT RightKnee
			{
				OFFSET -2.29562 -6.30717 0.00000
				CHANNELS 3 Zrotation Yrotation Xrotation
				JOINT RightAnkle
				{
					OFFSET -2.40985 -6.62100 0.00000
					CHANNELS 3 Zrotation Yrotation Xrotation
					JOINT RightToe
					{
						OFFSET -0.23197 -0.63733 1.92232
						CHANNELS 3 Zrotation Yrotation Xrotation
						End Site
						{
							OFFSET -0.00000 -0.00000 1.01562
						}
					}
				}
			}
		}
	}
	JOINT lowerback
	{
		OFFSET 0 0 0
		CHANNELS 3 Zrotation Yrotation Xrotation
		JOINT Chest
		{
			OFFSET -0.08565 2.03602 -0.24562
			CHANNELS 3 Zrotation Yrotation Xrotation
			JOINT Chest2
			{
				OFFSET -0.00036 2.05693 0.00216
				CHANNELS 3 Zrotation Yrotation Xrotation
				JOINT lowerneck
				{
					OFFSET 0 0 0
					CHANNELS 3 Zrotation Yrotation Xrotation
					JOINT Neck
					{
						OFFSET -0.03664 1.69515 0.31789
						CHANNELS 3 Zrotation Yrotation Xrotation
						JOINT Head
						{
							OFFSET 0.00932 1.70181 -0.46013
							CHANNELS 3 Zrotation Yrotation Xrotation
							End Site
							{
								OFFSET 0.01243 1.77620 -0.19377
							}
						}
					}
				}
				JOINT LeftCollar
				{
					OFFSET 0 0 0
					CHANNELS 3 Zrotation Yrotation Xrotation
					JOINT LeftShoulder
					{
						OFFSET 3.74344 0.81315 -0.36647
CHANNELS 3 Zrotation Xrotation Yrotation
						JOINT LeftElbow
						{
OFFSET 0 -4.971850 -0.000000
CHANNELS 3 Zrotation Xrotation Yrotation
							JOINT LeftWrist
							{
OFFSET 0 -3.358110 0.000000
CHANNELS 3 Zrotation Xrotation Yrotation
								JOINT lhand
								{
									OFFSET 0 0 0
CHANNELS 3 Zrotation Xrotation Yrotation
									JOINT LFingers
									{
OFFSET 0 -0.622780 0.000000
CHANNELS 3 Zrotation Xrotation Yrotation
										End Site
										{
OFFSET 0 -0.502100 0.000000
										}
									}
								}
								JOINT LThumb
								{
OFFSET 0 0.000000 0.000000
CHANNELS 3 Zrotation Xrotation Yrotation
									End Site
									{
OFFSET 0 -0.509760 0.509760
									}
								}
							}
						}
					}
				}
				JOINT RightCollar
				{
					OFFSET 0 0 0
					CHANNELS 3 Zrotation Yrotation Xrotation
					JOINT RightShoulder
					{
						OFFSET -3.75385 0.50666 -0.06525
CHANNELS 3 Zrotation Xrotation Yrotation
						JOINT RightElbow
						{
OFFSET 0 -4.964930 -0.000000
CHANNELS 3 Zrotation Xrotation Yrotation
							JOINT RightWrist
							{
OFFSET 0 -3.349290 0.000000
CHANNELS 3 Zrotation Xrotation Yrotation
								JOINT rhand
								{
									OFFSET 0 0 0
CHANNELS 3 Zrotation Xrotation Yrotation
									JOINT RFingers
									{
OFFSET 0 -0.638040 0.000000
CHANNELS 3 Zrotation Xrotation Yrotation
										End Site
										{
OFFSET 0 -0.514410 0.000000
										}
									}
								}
								JOINT RThumb
								{
OFFSET 0 0.000000 0.000000
CHANNELS 3 Zrotation Xrotation Yrotation
									End Site
									{
OFFSET 0 -0.522260 0.522260
									}
								}
							}
						}
					}
				}
			}
		}
	}
}
MOTION
Frames: 9
Frame Time: 0.008333333333333333
6.626331 15.681114 -1.715183 92.889820 -83.708352 -86.818934 0.000000 0.000000 0.000000 -13.118839 -0.532954 -37.691978 7.512615 15.748771 50.787397 0.795330 -3.737899 -16.002129 0.133424 -2.354555 -6.486685 0.000000 0.000000 0.000000 0.545626 -2.548872 -30.630792 -7.308906 -15.586485 50.032962 -1.579662 -0.001541 -23.787997 -0.190590 2.811521 -7.754428 -1.892043 1.895891 30.946201 -1.817018 0.929950 7.035866 -1.263989 0.177894 -9.021973 3.031746 9.235418 -27.561976 -10.146598 15.252221 27.256557 -1.453962 5.183887 15.291972 0.000000 0.000000 0.000000 6.832605 -15.111463 -43.871527 57.267295 -55.536664 32.077497 22.468319 -15.229022 12.267492 0.000000 0.000000 0.000000 -7.125000 0.000000 0.000000 -3.303145 16.754236 -2.220329 0.000000 0.000000 0.000000 -3.113899 -9.565535 25.760747 -65.677483 -57.642195 -39.102804 -15.151242 -6.775296 27.199709 0.000000 0.000000 0.000000 7.125000 0.000000 0.000000 16.645525 57.227677 -5.080983
6.643185 15.674657 -1.785941 90.069599 -83.233363 -83.925699 0.000000 0.000000 0.000000 -13.434220 -0.582545 -37.740133 7.428758 15.682489 50.477744 0.759337 -3.908398 -15.606794 0.153517 -2.524384 -6.957169 0.000000 0.000000 0.000000 0.258535 -2.760910 -31.005373 -7.442486 -15.693496 50.528638 -1.591915 -0.125517 -23.922063 -0.220498 3.022728 -8.341986 -2.084218 1.959774 30.856309 -1.961738 0.933656 7.146406 -1.314049 0.179455 -8.853150 3.115244 9.365546 -27.611441 -10.167561 15.480041 27.758344 -1.427187 5.248490 15.564313 0.000000 0.000000 0.000000 6.882737 -15.514517 -43.738974 57.221948 -55.523051 32.040023 20.429094 -16.006681 13.508838 0.000000 0.000000 0.000000 -7.125000 0.000000 0.000000 -4.763945 15.634406 -3.315682 0.000000 0.000000 0.000000 -3.051555 -9.688274 25.649201 -65.802742 -57.667732 -39.208602 -14.901640 -6.832525 27.141403 0.000000 0.000000 0.000000 7.125000 0.000000 0.000000 16.867996 57.119085 -5.106908
6.635020 15.674135 -1.874048 90.555245 -83.379331 -84.628067 0.000000 0.000000 0.000000 -12.980951 -0.150033 -37.481708 7.338176 15.610104 50.141945 0.728584 -4.060651 -15.264258 0.183869 -2.761144 -7.614371 0.000000 0.000000 0.000000 0.775085 -2.326113 -30.774780 -7.506645 -15.744111 50.765539 -1.608302 -0.447603 -24.156844 -0.232507 3.103394 -8.566720 -2.164497 2.190802 30.919556 -1.866238 1.202521 7.231140 -1.259319 0.302849 -8.787889 3.261627 9.567547 -27.322086 -10.438286 15.820317 27.878757 -1.493755 5.367349 15.639863 0.000000 0.000000 0.000000 6.734612 -15.538023 -43.463324 57.283255 -55.541372 32.090674 22.159036 -16.535220 13.308687 0.000000 0.000000 0.000000 -7.125000 0.000000 0.000000 -3.566161 15.670832 -2.476156 0.000000 0.000000 0.000000 -3.085738 -9.595789 25.625293 -66.072638 -57.722072 -39.436776 -14.837726 -6.849672 27.524127 0.000000 0.000000 0.000000 7.125000 0.000000 0.000000 17.170936 57.472636 -5.351505
6.624390 15.686461 -1.927211 87.445620 -83.205946 -81.627996 0.000000 0.000000 0.000000 -13.069389 -0.299697 -37.120122 7.264167 15.550322 49.866304 0.718819 -4.023888 -15.161391 0.206269 -2.924240 -8.067776 0.000000 0.000000 0.000000 0.776771 -2.948059 -30.635448 -7.538323 -15.768922 50.882090 -1.637509 -0.118409 -24.261245 -0.208678 2.940582 -8.113338 -1.935611 2.041525 30.865096 -1.948665 1.074950 7.319170 -1.434225 0.237671 -8.655766 3.438422 9.872448 -27.259384 -10.478966 16.267134 28.326974 -1.440694 5.536437 15.901037 0.000000 0.000000 0.000000 6.629249 -15.489247 -43.087285 57.537704 -55.617296 32.300469 22.403570 -16.433667 12.960867 0.000000 0.000000 0.000000 -7.125000 0.000000 0.000000 -3.381555 16.016946 -2.321342 0.000000 0.000000 0.000000 -3.146755 -9.616914 25.852697 -66.452809 -57.797641 -39.758307 -15.056584 -6.703752 28.401754 0.000000 0.000000 0.000000 7.125000 0.000000 0.000000 17.502327 58.360537 -5.834904
6.648845 15.682623 -2.011375 81.699094 -83.001749 -75.701492 0.000000 0.000000 0.000000 -12.859498 -0.812605 -37.349636 7.194110 15.493231 49.604825 0.670086 -4.093636 -14.619247 0.178072 -2.717113 -7.492244 0.000000 0.000000 0.000000 0.999001 -3.400229 -30.993480 -7.607994 -15.823226 51.138007 -1.669285 -0.195844 -24.522433 -0.190626 2.811664 -7.754906 -1.849324 1.860503 30.878612 -1.990327 0.879050 7.240225 -1.460996 0.150249 -8.752390 3.811539 10.127974 -26.966460 -10.646086 16.572561 28.572835 -1.509191 5.674223 16.044486 0.000000 0.000000 0.000000 6.623801 -15.503191 -42.856424 57.747047 -55.679079 32.473365 22.536274 -16.607396 12.896276 0.000000 0.000000 0.000000 -7.125000 0.000000 0.000000 -3.286906 16.072478 -2.252207 0.000000 0.000000 0.000000 -3.046177 -9.675003 25.958443 -66.370737 -57.781471 -39.688896 -14.723727 -6.842661 28.346866 0.000000 0.000000 0.000000 7.125000 0.000000 0.000000 17.813778 58.234946 -5.888790
6.662330 15.684525 -2.098696 79.087424 -82.960403 -73.070957 0.000000 0.000000 0.000000 -12.529718 -0.890818 -37.344258 7.091681 15.408512 49.220136 0.627758 -4.037466 -14.141568 0.199375 -2.873089 -7.925862 0.000000 0.000000 0.000000 1.397169 -3.387989 -31.162956 -7.694050 -15.889491 51.452963 -1.699935 -0.329275 -24.792725 -0.153923 2.522506 -6.952369 -1.790917 1.926882 30.940073 -1.965008 0.985739 7.219037 -1.507877 0.201037 -8.804028 3.901306 10.294866 -26.759109 -10.681797 16.827466 28.826607 -1.488197 5.775553 16.160445 0.000000 0.000000 0.000000 6.433115 -15.449797 -42.825502 58.002930 -55.753862 32.684777 22.744574 -16.636561 13.025443 0.000000 0.000000 0.000000 -7.125000 0.000000 0.000000 -3.149554 15.912296 -2.168706 0.000000 0.000000 0.000000 -3.011502 -9.622693 25.810183 -66.527737 -57.812324 -39.821738 -14.257033 -7.129839 28.742098 0.000000 0.000000 0.000000 7.125000 0.000000 0.000000 18.565149 58.507722 -6.270884
6.665233 15.689318 -2.173512 77.773142 -82.548063 -71.772828 0.000000 0.000000 0.000000 -12.729337 -0.879879 -37.138289 6.957277 15.295763 48.712428 0.599679 -4.140757 -13.808043 0.228683 -3.077832 -8.495446 0.000000 0.000000 0.000000 1.288299 -3.683602 -31.308856 -7.753507 -15.934922 51.670025 -1.719503 -0.274091 -24.915482 -0.128638 2.311707 -6.367928 -1.993828 2.005896 30.930997 -2.069185 1.008658 7.279908 -1.515530 0.213045 -8.731338 3.997138 10.473197 -26.648253 -10.647146 17.070033 29.050443 -1.436722 5.881518 16.273146 0.000000 0.000000 0.000000 6.293532 -15.622830 -42.771952 57.944929 -55.736939 32.636802 22.659632 -16.726110 13.226260 0.000000 0.000000 0.000000 -7.125000 0.000000 0.000000 -3.218105 15.706051 -2.230326 0.000000 0.000000 0.000000 -2.900016 -9.762260 25.714046 -66.380738 -57.783444 -39.697325 -13.975220 -7.459858 28.471907 0.000000 0.000000 0.000000 7.125000 0.000000 0.000000 18.676384 58.189769 -6.166918
6.660895 15.694854 -2.241497 75.914297 -82.485036 -69.999936 0.000000 0.000000 0.000000 -12.551889 -0.904888 -36.747441 6.824760 15.182467 48.208398 0.582934 -4.199391 -13.607411 0.233594 -3.110441 -8.586429 0.000000 0.000000 0.000000 1.562323 -3.960906 -31.284265 -7.800422 -15.970458 51.840573 -1.730470 -0.380337 -25.031850 -0.147471 2.474729 -6.819648 -1.786561 1.937617 30.893285 -2.116248 0.981919 7.330514 -1.676782 0.196588 -8.650982 4.452218 10.788931 -26.326209 -11.060325 17.501993 29.101108 -1.588496 6.057202 16.383340 0.000000 0.000000 0.000000 6.236614 -15.557489 -42.626526 58.050741 -55.767695 32.724303 22.616500 -16.880297 13.535270 0.000000 0.000000 0.000000 -7.125000 0.000000 0.000000 -3.263481 15.379675 -2.284888 0.000000 0.000000 0.000000 -2.734583 -9.790869 25.789495 -66.455526 -57.798117 -39.760639 -13.979366 -7.558548 28.138691 0.000000 0.000000 0.000000 7.125000 0.000000 0.000000 18.449763 57.874984 -5.947180
6.668436 15.691592 -2.316146 75.576053 -82.276369 -69.699509 0.000000 0.000000 0.000000 -12.522516 -0.930037 -36.524778 6.720078 15.091511 47.807543 0.561418 -4.067901 -13.353820 0.240818 -3.158135 -8.719335 0.000000 0.000000 0.000000 1.637116 -4.033686 -31.430182 -7.863086 -16.017581 52.067959 -1.734407 -0.416460 -25.072748 -0.137442 2.389512 -6.583440 -1.898533 2.032224 30.929205 -2.173513 1.054445 7.394190 -1.703143 0.229533 -8.594928 4.639997 10.971117 -26.156027 -11.201547 17.755123 29.163358 -1.622025 6.164684 16.445820 0.000000 0.000000 0.000000 6.048105 -15.566148 -42.623776 58.252470 -55.825941 32.891078 22.754103 -16.686048 13.394558 0.000000 0.000000 0.000000 -7.125000 0.000000 0.000000 -3.161790 15.515553 -2.204173 0.000000 0.000000 0.000000 -2.659742 -9.931533 25.671100 -66.568607 -57.820273 -39.856309 -13.530478 -7.833427 28.684081 0.000000 0.000000 0.000000 7.125000 0.000000 0.000000 19.280806 58.293019 -6.423726
